<mxfile host="Electron" agent="Mozilla/5.0 (Windows NT 10.0; Win64; x64) AppleWebKit/537.36 (KHTML, like Gecko) draw.io/27.0.2 Chrome/134.0.6998.205 Electron/35.3.0 Safari/537.36" version="27.0.2">
  <diagram id="csUSxeKsKivqRxmgrVVa" name="PÃ¡gina-1">
    <mxGraphModel dx="2583" dy="1051" grid="1" gridSize="10" guides="1" tooltips="1" connect="1" arrows="1" fold="1" page="1" pageScale="1" pageWidth="827" pageHeight="1169" math="0" shadow="0">
      <root>
        <mxCell id="0" />
        <mxCell id="1" parent="0" />
        <mxCell id="18" value="" style="rounded=1;whiteSpace=wrap;html=1;movable=0;resizable=0;rotatable=0;deletable=0;editable=0;locked=1;connectable=0;strokeColor=#86888B;fillColor=#0D1117;strokeWidth=2;" parent="1" vertex="1">
          <mxGeometry x="200" y="200" width="520" height="600" as="geometry" />
        </mxCell>
        <mxCell id="4" value="&lt;b&gt;&lt;font style=&quot;color: rgb(255, 255, 255);&quot;&gt;DynamoDB&lt;/font&gt;&lt;/b&gt;" style="sketch=0;points=[[0,0,0],[0.25,0,0],[0.5,0,0],[0.75,0,0],[1,0,0],[0,1,0],[0.25,1,0],[0.5,1,0],[0.75,1,0],[1,1,0],[0,0.25,0],[0,0.5,0],[0,0.75,0],[1,0.25,0],[1,0.5,0],[1,0.75,0]];outlineConnect=0;dashed=0;verticalLabelPosition=bottom;verticalAlign=top;align=center;html=1;fontSize=12;fontStyle=0;aspect=fixed;shape=mxgraph.aws4.resourceIcon;resIcon=mxgraph.aws4.dynamodb;movable=0;resizable=0;rotatable=0;deletable=0;editable=0;locked=1;connectable=0;fillColor=none;strokeColor=#FFFFFF;" parent="1" vertex="1">
          <mxGeometry x="421.33000000000004" y="470" width="78" height="78" as="geometry" />
        </mxCell>
        <mxCell id="5" value="&lt;div&gt;&lt;b&gt;&lt;font style=&quot;color: rgb(255, 255, 255);&quot;&gt;Lambda&lt;/font&gt;&lt;/b&gt;&lt;/div&gt;&lt;font style=&quot;color: rgb(255, 255, 255);&quot;&gt;relatorio&lt;/font&gt;" style="sketch=0;points=[[0,0,0],[0.25,0,0],[0.5,0,0],[0.75,0,0],[1,0,0],[0,1,0],[0.25,1,0],[0.5,1,0],[0.75,1,0],[1,1,0],[0,0.25,0],[0,0.5,0],[0,0.75,0],[1,0.25,0],[1,0.5,0],[1,0.75,0]];outlineConnect=0;fontColor=#232F3E;fillColor=none;strokeColor=light-dark(#FFFFFF,#FFFFFF);dashed=0;verticalLabelPosition=bottom;verticalAlign=top;align=center;html=1;fontSize=12;fontStyle=0;aspect=fixed;shape=mxgraph.aws4.resourceIcon;resIcon=mxgraph.aws4.lambda;movable=0;resizable=0;rotatable=0;deletable=0;editable=0;locked=1;connectable=0;" parent="1" vertex="1">
          <mxGeometry x="421.33000000000004" y="630" width="78" height="78" as="geometry" />
        </mxCell>
        <mxCell id="6" value="&lt;b&gt;&lt;font style=&quot;color: rgb(255, 255, 255);&quot;&gt;Event Bridge&lt;/font&gt;&lt;/b&gt;&lt;div&gt;&lt;font style=&quot;color: rgb(255, 255, 255);&quot;&gt;Trigger 00:00h&lt;/font&gt;&lt;/div&gt;" style="sketch=0;points=[[0,0,0],[0.25,0,0],[0.5,0,0],[0.75,0,0],[1,0,0],[0,1,0],[0.25,1,0],[0.5,1,0],[0.75,1,0],[1,1,0],[0,0.25,0],[0,0.5,0],[0,0.75,0],[1,0.25,0],[1,0.5,0],[1,0.75,0]];outlineConnect=0;fontColor=#232F3E;fillColor=none;strokeColor=light-dark(#FFFFFF,#FFFFFF);dashed=0;verticalLabelPosition=bottom;verticalAlign=top;align=center;html=1;fontSize=12;fontStyle=0;aspect=fixed;shape=mxgraph.aws4.resourceIcon;resIcon=mxgraph.aws4.eventbridge;movable=0;resizable=0;rotatable=0;deletable=0;editable=0;locked=1;connectable=0;" parent="1" vertex="1">
          <mxGeometry x="261.33000000000004" y="630" width="78" height="78" as="geometry" />
        </mxCell>
        <mxCell id="7" value="&lt;b&gt;&lt;font style=&quot;color: rgb(255, 255, 255);&quot;&gt;API Gateway&lt;/font&gt;&lt;/b&gt;&lt;div&gt;&lt;font style=&quot;color: rgb(255, 255, 255);&quot;&gt;POST - /api/registrar&lt;/font&gt;&lt;/div&gt;" style="sketch=0;points=[[0,0,0],[0.25,0,0],[0.5,0,0],[0.75,0,0],[1,0,0],[0,1,0],[0.25,1,0],[0.5,1,0],[0.75,1,0],[1,1,0],[0,0.25,0],[0,0.5,0],[0,0.75,0],[1,0.25,0],[1,0.5,0],[1,0.75,0]];outlineConnect=0;fontColor=#232F3E;fillColor=none;strokeColor=#FFFFFF;dashed=0;verticalLabelPosition=bottom;verticalAlign=top;align=center;html=1;fontSize=12;fontStyle=0;aspect=fixed;shape=mxgraph.aws4.resourceIcon;resIcon=mxgraph.aws4.api_gateway;movable=0;resizable=0;rotatable=0;deletable=0;editable=0;locked=1;connectable=0;" parent="1" vertex="1">
          <mxGeometry x="261.33000000000004" y="310" width="78" height="78" as="geometry" />
        </mxCell>
        <mxCell id="8" value="&lt;b&gt;&lt;font style=&quot;color: rgb(255, 255, 255);&quot;&gt;Lambda&lt;/font&gt;&lt;/b&gt;&lt;div&gt;&lt;font style=&quot;color: rgb(255, 255, 255);&quot;&gt;registrar&lt;/font&gt;&lt;/div&gt;" style="sketch=0;points=[[0,0,0],[0.25,0,0],[0.5,0,0],[0.75,0,0],[1,0,0],[0,1,0],[0.25,1,0],[0.5,1,0],[0.75,1,0],[1,1,0],[0,0.25,0],[0,0.5,0],[0,0.75,0],[1,0.25,0],[1,0.5,0],[1,0.75,0]];outlineConnect=0;dashed=0;verticalLabelPosition=bottom;verticalAlign=top;align=center;html=1;fontSize=12;fontStyle=0;aspect=fixed;shape=mxgraph.aws4.resourceIcon;resIcon=mxgraph.aws4.lambda;horizontal=1;movable=0;resizable=0;rotatable=0;deletable=0;editable=0;locked=1;connectable=0;fillColor=none;strokeColor=#FFFFFF;" parent="1" vertex="1">
          <mxGeometry x="421.33000000000004" y="310" width="78" height="78" as="geometry" />
        </mxCell>
        <mxCell id="13" value="" style="endArrow=classic;html=1;entryX=0;entryY=0.5;entryDx=0;entryDy=0;entryPerimeter=0;exitX=1;exitY=0.5;exitDx=0;exitDy=0;exitPerimeter=0;strokeWidth=2;movable=0;resizable=0;rotatable=0;deletable=0;editable=0;locked=1;connectable=0;strokeColor=light-dark(#ffffff, #ededed);" parent="1" source="7" target="8" edge="1">
          <mxGeometry width="50" height="50" relative="1" as="geometry">
            <mxPoint x="450" y="530" as="sourcePoint" />
            <mxPoint x="500" y="480" as="targetPoint" />
          </mxGeometry>
        </mxCell>
        <mxCell id="14" value="" style="endArrow=classic;html=1;entryX=0;entryY=0.5;entryDx=0;entryDy=0;entryPerimeter=0;exitX=1;exitY=0.5;exitDx=0;exitDy=0;exitPerimeter=0;movable=0;resizable=0;rotatable=0;deletable=0;editable=0;locked=1;connectable=0;strokeColor=#FCFCFC;" parent="1" source="6" target="5" edge="1">
          <mxGeometry width="50" height="50" relative="1" as="geometry">
            <mxPoint x="348" y="419" as="sourcePoint" />
            <mxPoint x="430" y="419" as="targetPoint" />
          </mxGeometry>
        </mxCell>
        <mxCell id="15" value="" style="endArrow=classic;startArrow=classic;html=1;entryX=0;entryY=0.5;entryDx=0;entryDy=0;entryPerimeter=0;exitX=0;exitY=0.25;exitDx=0;exitDy=0;exitPerimeter=0;movable=0;resizable=0;rotatable=0;deletable=0;editable=0;locked=1;connectable=0;strokeColor=light-dark(#ffffff, #ededed);" parent="1" source="5" target="4" edge="1">
          <mxGeometry width="50" height="50" relative="1" as="geometry">
            <mxPoint x="420" y="650" as="sourcePoint" />
            <mxPoint x="540" y="550" as="targetPoint" />
            <Array as="points">
              <mxPoint x="380" y="650" />
              <mxPoint x="380" y="509" />
            </Array>
          </mxGeometry>
        </mxCell>
        <mxCell id="16" value="" style="endArrow=classic;html=1;exitX=1;exitY=0.5;exitDx=0;exitDy=0;exitPerimeter=0;movable=0;resizable=0;rotatable=0;deletable=0;editable=0;locked=1;connectable=0;strokeColor=#FAFAFA;" parent="1" source="5" target="33" edge="1">
          <mxGeometry width="50" height="50" relative="1" as="geometry">
            <mxPoint x="490" y="640" as="sourcePoint" />
            <mxPoint x="576" y="690" as="targetPoint" />
          </mxGeometry>
        </mxCell>
        <mxCell id="17" value="" style="endArrow=classic;html=1;entryX=1;entryY=0.5;entryDx=0;entryDy=0;entryPerimeter=0;exitX=1;exitY=0.5;exitDx=0;exitDy=0;exitPerimeter=0;strokeWidth=2;movable=0;resizable=0;rotatable=0;deletable=0;editable=0;locked=1;connectable=0;strokeColor=#FFFFFF;" parent="1" source="8" target="4" edge="1">
          <mxGeometry width="50" height="50" relative="1" as="geometry">
            <mxPoint x="610" y="500" as="sourcePoint" />
            <mxPoint x="660" y="450" as="targetPoint" />
            <Array as="points">
              <mxPoint x="540" y="350" />
              <mxPoint x="540" y="510" />
            </Array>
          </mxGeometry>
        </mxCell>
        <mxCell id="21" value="&lt;b&gt;&lt;font style=&quot;font-size: 22px;&quot;&gt;AWS&lt;/font&gt;&lt;/b&gt;" style="rounded=1;whiteSpace=wrap;html=1;fillColor=light-dark(#FFFFFF,#FFFFFF);fontColor=light-dark(#000000,#000000);strokeColor=light-dark(#FFFFFF,#FFFFFF);arcSize=50;strokeWidth=2;movable=1;resizable=1;rotatable=1;deletable=1;editable=1;locked=0;connectable=1;" parent="1" vertex="1">
          <mxGeometry x="384" y="220" width="160" height="40" as="geometry" />
        </mxCell>
        <mxCell id="23" value="" style="rounded=1;whiteSpace=wrap;html=1;fillColor=light-dark(#FFFFFF,#FFFFFF);fontColor=#000000;strokeColor=light-dark(#000000,#000000);arcSize=50;strokeWidth=3;movable=1;resizable=1;rotatable=1;deletable=1;editable=1;locked=0;connectable=1;" parent="1" vertex="1">
          <mxGeometry x="335.52000000000004" y="100" width="248.96" height="60" as="geometry" />
        </mxCell>
        <mxCell id="24" value="" style="endArrow=classic;html=1;entryX=0.5;entryY=0;entryDx=0;entryDy=0;exitX=0.5;exitY=1;exitDx=0;exitDy=0;strokeWidth=4;movable=0;resizable=0;rotatable=0;deletable=0;editable=0;locked=1;connectable=0;rounded=1;curved=0;jumpSize=6;" parent="1" source="23" target="18" edge="1">
          <mxGeometry width="50" height="50" relative="1" as="geometry">
            <mxPoint x="380" y="330" as="sourcePoint" />
            <mxPoint x="430" y="280" as="targetPoint" />
          </mxGeometry>
        </mxCell>
        <mxCell id="33" value="&lt;b&gt;&lt;font style=&quot;color: rgb(255, 255, 255);&quot;&gt;Email&lt;/font&gt;&lt;/b&gt;" style="sketch=0;outlineConnect=0;fontColor=#232F3E;gradientColor=none;fillColor=#FFFFFF;strokeColor=#FFFFFF;dashed=0;verticalLabelPosition=bottom;verticalAlign=top;align=center;html=1;fontSize=12;fontStyle=0;aspect=fixed;pointerEvents=1;shape=mxgraph.aws4.email_2;fillStyle=auto;strokeWidth=2;spacing=2;movable=0;resizable=0;rotatable=0;deletable=0;editable=0;locked=1;connectable=0;" parent="1" vertex="1">
          <mxGeometry x="577.3299999999999" y="640.94" width="89.34" height="56.13" as="geometry" />
        </mxCell>
        <mxCell id="0FPIJWU7_Kn2yIS2lfCO-38" value="" style="shape=image;verticalLabelPosition=bottom;labelBackgroundColor=default;verticalAlign=top;aspect=fixed;imageAspect=0;editableCssRules=.*;image=data:image/svg+xml,PHN2ZyB4bWxucz0iaHR0cDovL3d3dy53My5vcmcvMjAwMC9zdmciIHZpZXdCb3g9IjAgMi40NTU5OTkzNzQzODk2NDg0IDI0IDE5LjA4OTAwMDcwMTkwNDI5NyIgcm9sZT0iaW1nIiB3aWR0aD0iMjQiIGhlaWdodD0iMTkuMDg5MDAwNzAxOTA0Mjk3Ij48dGl0bGU+U2VydmVybGVzczwvdGl0bGU+PHBhdGggZD0iTTAgMTcuNTdoNC4yNDhsLTEuMzE2IDMuOTc0SDB6bTAtNy41NTdoNi43NWwtMS4zMTYgMy45NzRIMHptMC03LjU1N2g5LjI1Mkw3LjkzNiA2LjQzMUgwem0xMy40NCAwSDI0djMuOTc1SDEyLjEyM3pNOS42MiAxMy45ODdsMS4zMTctMy45NzRIMjR2My45NzR6TTguNDM2IDE3LjU3SDI0djMuOTc1SDcuMTE5WiIvPjwvc3ZnPg==;" vertex="1" parent="1">
          <mxGeometry x="367.81" y="120.5" width="24" height="19" as="geometry" />
        </mxCell>
        <mxCell id="0FPIJWU7_Kn2yIS2lfCO-39" value="serverless framework" style="text;html=1;align=center;verticalAlign=middle;resizable=0;points=[];autosize=1;strokeColor=none;fillColor=none;fontColor=light-dark(#000000,#000000);fontStyle=1;fontSize=16;" vertex="1" parent="1">
          <mxGeometry x="391.81" y="115" width="180" height="30" as="geometry" />
        </mxCell>
      </root>
    </mxGraphModel>
  </diagram>
</mxfile>
